<svg xmlns="http://www.w3.org/2000/svg" viewBox="0 13.399999618530273 57.04999923706055 35.19999694824219" data-asc="0.968" width="57.04999923706055" height="35.19999694824219"><defs/><g fill="#161622"><g transform="translate(0, 0)"><path d="M8.95 48.60Q6.20 48.60 3.83 47.27Q1.45 45.95 0 43.65L1.05 42.55Q2.50 44.70 4.55 45.88Q6.60 47.05 9 47.05Q16.25 47.05 16.25 38.40L16.25 14.95L3.25 14.95L3.25 13.40L17.95 13.40L17.95 38.45Q17.95 43.50 15.70 46.05Q13.45 48.60 8.95 48.60ZM30.45 48.40L30.45 13.40L42.60 13.40Q46.95 13.40 50.08 14.80Q53.20 16.20 54.85 18.77Q56.50 21.35 56.50 25.00Q56.50 28.65 54.85 31.25Q53.20 33.85 50.08 35.25Q46.95 36.65 42.60 36.65L31.40 36.65L32.15 35.85L32.15 48.40L30.45 48.40M55.05 48.40L45.95 35.70L47.90 35.70L57.05 48.40L55.05 48.40M32.15 35.85L31.40 35.10L42.70 35.10Q48.60 35.10 51.73 32.45Q54.85 29.80 54.85 25.00Q54.85 20.20 51.73 17.57Q48.60 14.95 42.70 14.95L31.40 14.95L32.15 14.15L32.15 35.85Z"/></g></g></svg>